<?xml version="1.0" encoding="UTF-8"?>
<svg width="37px" height="30px" viewBox="0 0 37 30" version="1.1" xmlns="http://www.w3.org/2000/svg" xmlns:xlink="http://www.w3.org/1999/xlink">
    <!-- Generator: Sketch 52.2 (67145) - http://www.bohemiancoding.com/sketch -->
    <title>证书</title>
    <desc>Created with Sketch.</desc>
    <defs>
        <linearGradient x1="18.6301938%" y1="8.23080106%" x2="84.0945306%" y2="100%" id="linearGradient-1">
            <stop stop-color="#FF8686" offset="0%"></stop>
            <stop stop-color="#EE3131" offset="100%"></stop>
        </linearGradient>
    </defs>
    <g id="Page-1" stroke="none" stroke-width="1" fill="none" fill-rule="evenodd">
        <g id="A1_1登录" transform="translate(-118.000000, -585.000000)">
            <g id="证书" transform="translate(110.000000, 574.000000)">
                <rect id="矩形" fill="#000000" opacity="0" x="0" y="0" width="50" height="50"></rect>
                <rect id="矩形" stroke="url(#linearGradient-1)" stroke-width="2" fill-rule="nonzero" x="9" y="12" width="22" height="28" rx="3"></rect>
                <path d="M36.94,15.5 L35,15 C34.8210422,14.9570572 34.6322754,14.9986193 34.4879021,15.1127523 C34.3435288,15.2268852 34.2595208,15.4009626 34.26,15.585 L34.259998,40.015 L34.305,40.015 C34.455,39.975 34.705,39.84 35.065,38.945 C35.135,38.77 35.22,38.535 35.305,38.255 L39.645,19.81 C40.0754636,17.8750395 38.8696353,15.9537383 36.94,15.5 Z M42.86,21.86 L41.67,21.245 C41.5065125,21.1598777 41.3129723,21.1546225 41.1451065,21.2307477 C40.9772407,21.3068729 40.8536793,21.4559299 40.81,21.635 L36.38,39.395 L36.435,39.395 C36.738039,39.2686745 36.9934975,39.0499601 37.165,38.77 C37.2775275,38.620655 37.3794441,38.4636032 37.47,38.3 L44.035,25.54 C44.7217465,24.1989143 44.1968447,22.5549662 42.86,21.86 Z" id="形状" fill="#FF6969" fill-rule="nonzero"></path>
                <path d="M15,24 C15,21.2385763 17.2385763,19 20,19 C22.7614237,19 25,21.2385763 25,24 C25,26.7614237 22.7614237,29 20,29 C17.2385763,29 15,26.7614237 15,24 Z M16.65,28.665 L16.645,28.665 C18.6269042,30.0503674 21.2630958,30.0503674 23.2450066,28.665 L23.245,31.35 C23.2463327,31.6847005 23.0453136,31.9870375 22.7361626,32.1153023 C22.4270117,32.243567 22.0710022,32.1723376 21.835,31.935 L19.945,30.045 L18.055,31.935 C17.9800794,32.0091279 17.8918778,32.0684943 17.795,32.11 C17.6938104,32.1530319 17.5849594,32.1751423 17.475,32.175 C17.2558644,32.1758691 17.0453865,32.0895192 16.89,31.935 C16.8160551,31.8599297 16.7567133,31.7717647 16.715,31.675 C16.6722296,31.5737293 16.6501301,31.464932 16.65,31.355 L16.65,28.665 Z" id="合并形状" fill="#FF6969"></path>
            </g>
        </g>
    </g>
</svg>