<?xml version="1.0" encoding="UTF-8"?>
<svg width="38px" height="28px" viewBox="0 0 38 28" version="1.1" xmlns="http://www.w3.org/2000/svg" xmlns:xlink="http://www.w3.org/1999/xlink">
    <!-- Generator: Sketch 52.2 (67145) - http://www.bohemiancoding.com/sketch -->
    <title>身份证</title>
    <desc>Created with Sketch.</desc>
    <defs>
        <linearGradient x1="18.6301938%" y1="8.23080106%" x2="84.0945306%" y2="100%" id="linearGradient-1">
            <stop stop-color="#FF8686" offset="0%"></stop>
            <stop stop-color="#EE3131" offset="100%"></stop>
        </linearGradient>
    </defs>
    <g id="Page-1" stroke="none" stroke-width="1" fill="none" fill-rule="evenodd">
        <g id="A1_1登录" transform="translate(-116.000000, -457.000000)">
            <g id="身份证" transform="translate(110.000000, 444.000000)">
                <rect id="矩形" fill="#000000" opacity="0" x="0" y="0" width="50" height="50"></rect>
                <rect id="矩形" stroke="url(#linearGradient-1)" stroke-width="2" fill-opacity="0.496659873" fill="#FFFFFF" fill-rule="nonzero" x="7" y="14" width="36" height="26" rx="3"></rect>
                <path d="M37.1484375,25.3515625 L26.6015625,25.3515625 C26.0644531,25.3515625 25.625,24.9121094 25.625,24.375 C25.625,23.8378906 26.0644531,23.3984375 26.6015625,23.3984375 L37.1484375,23.3984375 C37.6855469,23.3984375 38.125,23.8378906 38.125,24.375 C38.125,24.9121094 37.6855469,25.3515625 37.1484375,25.3515625 Z" id="路径" fill="#FF6969" fill-rule="nonzero"></path>
                <path d="M37.1484375,31.6015625 L26.6015625,31.6015625 C26.0644531,31.6015625 25.625,31.1621094 25.625,30.625 C25.625,30.0878906 26.0644531,29.6484375 26.6015625,29.6484375 L37.1484375,29.6484375 C37.6855469,29.6484375 38.125,30.0878906 38.125,30.625 C38.125,31.1621094 37.6855469,31.6015625 37.1484375,31.6015625 Z" id="路径" fill="#FF6969" fill-rule="nonzero"></path>
                <path d="M21.1914062,34.375 L12.5585938,34.375 C11.7529297,34.375 11.09375,33.7158203 11.09375,32.9101562 L11.09375,22.0898438 C11.09375,21.2841797 11.7529297,20.625 12.5585938,20.625 L21.1914062,20.625 C21.9970703,20.625 22.65625,21.2841797 22.65625,22.0898438 L22.65625,32.9101562 C22.65625,33.7158203 21.9970703,34.375 21.1914062,34.375 Z" id="路径" fill-opacity="0.496659873" fill="#FF4646"></path>
                <polygon id="路径" fill="#FF4E4E" points="14.8535156 28.4716797 18.7402344 28.4716797 18.7402344 32.03125 14.8535156 32.03125"></polygon>
                <path d="M15.4736328,27.7148438 L16.2304688,28.4716797 L15.5810547,32.03125 L12.34375,32.03125 C12.34375,32.03125 12.2363281,29.0087891 15.4736328,27.7148438 Z M18.1689453,27.7148438 L17.4121094,28.4716797 L18.0615234,32.03125 L21.2988281,32.03125 C21.2988281,32.03125 21.4111328,29.0087891 18.1689453,27.7148438 Z" id="形状" fill="#FF7474" fill-rule="nonzero"></path>
                <path d="M14.3408203,24.6386719 C14.3408203,25.524858 14.813595,26.3437278 15.5810547,26.7868209 C16.3485144,27.229914 17.2940637,27.229914 18.0615235,26.7868209 C18.8289832,26.3437278 19.3017578,25.524858 19.3017578,24.6386719 C19.3017578,23.2687468 18.1912141,22.1582031 16.8212891,22.1582031 C15.451364,22.1582031 14.3408203,23.2687468 14.3408203,24.6386719 Z" id="路径" fill="#FF7474"></path>
            </g>
        </g>
    </g>
</svg>